<mxfile host="65bd71144e">
    <diagram name="Page-1" id="wM2dXjbluH5vXydj9IBP">
        <mxGraphModel dx="1195" dy="933" grid="1" gridSize="10" guides="1" tooltips="1" connect="1" arrows="1" fold="1" page="1" pageScale="1" pageWidth="4000" pageHeight="4000" math="0" shadow="0">
            <root>
                <mxCell id="0"/>
                <mxCell id="1" parent="0"/>
                <mxCell id="BudTzyy_jxnUeHE1odWL-15" style="edgeStyle=orthogonalEdgeStyle;rounded=0;orthogonalLoop=1;jettySize=auto;html=1;exitX=1;exitY=0.5;exitDx=0;exitDy=0;exitPerimeter=0;entryX=0;entryY=0.5;entryDx=0;entryDy=0;" parent="1" source="BudTzyy_jxnUeHE1odWL-10" target="BudTzyy_jxnUeHE1odWL-13" edge="1">
                    <mxGeometry relative="1" as="geometry"/>
                </mxCell>
                <mxCell id="BudTzyy_jxnUeHE1odWL-16" value="generate" style="edgeLabel;html=1;align=left;verticalAlign=middle;resizable=0;points=[];" parent="BudTzyy_jxnUeHE1odWL-15" connectable="0" vertex="1">
                    <mxGeometry x="-0.3545" y="1" relative="1" as="geometry">
                        <mxPoint as="offset"/>
                    </mxGeometry>
                </mxCell>
                <mxCell id="BudTzyy_jxnUeHE1odWL-10" value="" style="whiteSpace=wrap;html=1;shape=mxgraph.basic.document" parent="1" vertex="1">
                    <mxGeometry x="159" y="330" width="100" height="100" as="geometry"/>
                </mxCell>
                <mxCell id="BudTzyy_jxnUeHE1odWL-9" value="" style="whiteSpace=wrap;html=1;shape=mxgraph.basic.document" parent="1" vertex="1">
                    <mxGeometry x="150" y="320" width="100" height="100" as="geometry"/>
                </mxCell>
                <mxCell id="BudTzyy_jxnUeHE1odWL-2" value="Go Module(s)&lt;br&gt;to search in" style="text;html=1;align=center;verticalAlign=middle;resizable=0;points=[];autosize=1;strokeColor=none;fillColor=none;fontSize=16;" parent="1" vertex="1">
                    <mxGeometry x="150" y="440" width="120" height="50" as="geometry"/>
                </mxCell>
                <mxCell id="BudTzyy_jxnUeHE1odWL-8" value="" style="shape=image;verticalLabelPosition=bottom;labelBackgroundColor=default;verticalAlign=top;aspect=fixed;imageAspect=0;image=data:image/png,iVBORw0KGgoAAAANSUhEUgAAAgAAAADACAYAAAByD9tnAAABW2lDQ1BJQ0MgUHJvZmlsZQAAKJF1kDFLw1AUhU+1Uq0KCo4KmQQhak0L6uBQOxRBsKaK1S1Nk1Zo00cSEUX/g1N/QRGdHCsuOtjNTVRQd8XBRQiKlnhfq6ZVvHDf/TicdzlcoK1TYSzvB1AwbFOOzwqp1TUh8IAAguhCBP2KarFoIjFPFnzP1nKu4ePzcpTvMu705+Tjq350NT7hlGcO/vpbKpjRLJXmB3VIZaYN+ETixKbNOO8QD5gUiniPc7bBZc7pBh/XPUtyjPiCuE/NKRnie2Ix3aRnm7iQ31C/MvD0PZqxnOR7qAchYwFxCEjRK2ES01j8xx+p+2MogmELJtaRRQ42/Y2SwpCHRjwHAyrGIBJLCFGH+Z1/38/TdqvA1BPBqafJ28DJG9Bb9bThEkUZAs4PmWIqP1f1OX5LD0sN7q4AHSXXfVkBAiNA7cZ13yuuW9sH2m+BM+cTOP5mmLXlb2QAAAA4ZVhJZk1NACoAAAAIAAGHaQAEAAAAAQAAABoAAAAAAAKgAgAEAAAAAQAAAgCgAwAEAAAAAQAAAMAAAAAAjO3ebwAAOM5JREFUeAHtXQl8XUW5/+bcLF2BtiylCAXakqWbRZBFhFdZBAqUZkMBCwiyKIKAiIJLQeApwuMJsokKVIpyk5tSQTaphSLqk2LpktybBqxYoKW0he5Jc++Z958b0iZplrucZc6cb/o7vWeZ+Zb/TM5855uZbwRxYgQYgWAhMC8xlFJyf0rR3kRiHwg/hCw5mGzag4QoJkFDuygk5Tbk205CbiRbbMWzLSTlWorI92nTwA/ookNauuTnC0aAEQgFAiIUWrKSjECQEIg2FJEVKYXI6hiHDv1gsuXo9C/RQbhX7Kw64mMi+S8YCc1E9lskaQWMhWUwKBqoZvwOZ3kxNUaAEdAFATYAdKkJliOcCEQbhpOwjoDyR6CD/wx+J+A4FEcBDr+T6vyXwzBYjN+/UiTyCs0Y97bfQjF/gxGYvWQwDRg0CN6poTBCh1LS3v3voCCyDUZqK7XKTWRbO+j8cZsMRsRV1dgAcBVeJs4IdEJASkGxxnIiayo61ePw1X0knqrOPkBJrIKwL+MF/ALt2PEsnTfpowAJz6L6hcC8ZftRm3UwUQSeLPtgkuJAGLz7oR3th78DDGMJ/NLwHMVrRbkP04ekD0B3DYbCYKjCqyXtt2lHwdt0bsm6HGkbXYwNAKOrl5XzHYFo4hCy6ItwrU/FS++E9EvPd6EcEyAJSq/iS+0PFEnF6OyJyjjgFFYEZkmLJiXGYm6K8mKVot2Xo4MvS58TDfIVlnbDYAn+Bt/EfJkl+DtcRBVlK3yVSQPmbABoUAksgkEIqJdgeWIKXjBn4gV4Bl6Ah0O7MPyd2dDzb9B0NhWI39H00s0G1Sqr0h2BqIyQ1TQext/haONo7+pXTEa2rhNQu5fT6xqeAhiwyohNwatVU7ZML/HclyYMLyb3UWQO4UZAufbrGo+D2/Fc9PUVAGPfcAOCVQZC/B4rFe4J40vVyLp/aFEhDRs8CR39SahbDF/RsThyddnrCVHaSyBehEHzNMnUc5gAu0VPQZ2Tig0A57BkSmFDIBqfiK98dPrpQ83O57Q7AgvQadxLqbI/UI1I7f6Y72iJgPJkTWhS3isMX8lT8HsMjkItZXVHKLVc9g9ou3No+Acv0NSparjLuMQGgHFVygq5isAjKwfQkNYz8WK4FHxOcpWXWcT/BXfrT2n4mt+Y+jINfHVF396TRNsZaNvTUFcn40sYcSY4AYG1wOJJTF58hKrGqxUxxiQ2AIypSlbEVQTqGsZj9v7l4PEVHHu6ysts4irGwK3wCDzBHgENKnrO0mFUVACDVlRDmpNxOBxjQgMdnRRB0Bsg90vaNGC2CQG02ABwsnEwLfMQiDYdR5Z9AxSbhoP/XhyrYRkHqW9TVfmzjpFkQpkh8GxzMW1NnQXX/gVo0XDxaxFzIjPZ9cm1GkbT/WRt/wXNmIJAWsFM/EILZr2x1G4ikB7/TKgO/0YcR7vJimnTS1gi+S24VhsYC5cRiDZ9Ft4XdPryS+Bk1gQ+l6HrnXw6iuY9ZNs/x6TBDb3n0/MJGwB61gtL5QcC6dn8TVV4Qd4C9ioMLydvEGjD3gQ/pS0DbzPBreoNZBlySX/tt51DlrgK49gq0iQndxDYBI/KvdRSeEeQIhOyAeBOY2CqQUMg1ogJfeIn/JL0teLeQkd1GVWU/tlXKUxgHm0YSZZ1BdrzZXDzqyh7nLxBQE0Y/CHJ0l8FYY4LGwDeNArmoisCyi1qyTthvX9eVxFDJpdEXTxI29qup5mT1VIsTtkgEG04iETkBnixLkYxntCXDXbO5l0OQ+A6qi570VmyzlJjA8BZPJlaUBCoj4/Abnc/hLjfwBEJitghknMl6uc8BBL6W4h0zl3VWONoROK7FgTU8tQBuRPikg4j8Aw2LLqcakrec5iuI+TYAHAERiYSGAQWLCig9fuj05c3Q2Zezqd3xSXxFXUbNZTeQrOECjXMqTsC9W/tS/YOtGWhvvjDFKinOxI6X2+AcYYVLyWPYuUAPFz6JDYA9KkLlsRtBNLufvtXYDPRbVZM30EEJP2ZpDVT168oBzXNnFR01UASW67B+P53UShI8fcz19G0nOl2bF+E1QL/0UU1NgB0qQmWwz0E1MsysvVHmGn+bTBhd797SLtHWdA6LLWqoOrxr7rHJCCUY/Fz8UX5E3ixDgyIxCzmTgSwbFDYl1Nl+ZM7b/l4wgaAj+Azaw8QiMZPQLx+9dU/1gNuzMJdBFpA/qtUVfY7d9loSn1u8xhKJe+HdCo2P6cgIyColqyWS/0OIsQGQJAbEcveOwJqrH/dyO/DRfoDZLJ6z8hPAoaAxDjqHbSs5MbQzAtQa/m3JVU0yu/h4Al+AWuwfYi7AiuQKqmifHkfeVx9xAaAq/AycV8QiDaMxRroJ8D7SF/4M1P3EVBfUAMLvkKnj2t1n5mPHKLxz6CT+C0m+ZX5KAWzdg+BrRiavISqy3/vHoveKbMB0Ds2/CSICMQav4Lx0fsgOk+MCmL9ZSOzpOdJDqmgmgO3Z1MsEHmjMkJWEyb4yR9BXp7dH4hKy0vIu2nEmu94vVMmGwB51RkX1gaBdjfpHZDnKm1kYkG8QGAhJgdOw8zqLV4w84TH3PjBlKLHwOt4T/gxE10QeJFaCqq9DCXMBoAuVc9y5I7AvMQoSso6rBk/JnciXDKwCAj5FyqwTqfppZsDq0OH4HXxSpz+BsceHbf4N0wIiDfJFmd4teSVDYAwtS0TdW3frrcWqo00UT3WKWMEXoMn4NTAegLaJ63+BJNWVTQ/fi9nXO1GZnwX8z5O82JyIDc0I9tPSJSKxS/EV/8voS2PkYakyvtUU9Ifae81Z3s9jtqnTJk8jDbvQ1YKSxvliZlk5zwhQEDQR2gPpyNewN/d1JaXR7mJLtN2D4HaxhvQ+StXKXf+7qEcLMqCpiHM84OBErquYQpZycXc+Qeq1twXVtIwTGZ+gWobXN2kjD0A7lclc3ASATU7OpK4D53/ZU6SZVomISC+T1Wlt2mvUaxxGl7yavnXEO1lZQH9QmAbSfssRMCc74YAbAC4gSrTdAeB2UsG08CiOoyQnuoOA6ZqCAIIFiQvgPsU6+c1TbWNlyCg0QOQrkBTCVksfRBQRsCpboTBZgNAn0pmSfpCINowBMF9/oAsU/vKxs8YgU8QaMV2wp/DdsJvaIWIlIJiCbVcVe1LwYkRyBCB9B4CJ8Ko/WeGBTLKxgZARjBxJl8RmLt4L0oNeA4yHO2rHMw8aAi8g5UBh2NlwAYtBJ8lLZqQUHMUvqaFPCxEsBBQG2KlxHFUU9rklOA8CdApJJmOOwio/c5TA14Gce783UHYZKqj4TV6FKFW/f/QUXNXJiTUpFXu/E1ucW7qJmlvLA98jtQ70aHEBoBDQDIZFxBQy6PsHS+D8mQXqDPJcCBwJtXHr/ZV1WhDEVmJKGS4wFc5mLkJCBxCckeMVORTBxIbAA6AyCRcQEC5/a3kC7wJigvYho2kxO6BalMdP9JDiwpJWPVgXeEHe+ZpIAISwwDbk792QjM2AJxAkWk4i8DTiwZRaqCa8DfFWcJMLaQIFGJD6EdIfYl7mZTbf+/Bs7FqZZqXbJlXCBCQdB7F4t/MV1M2APJFkMs7i4B6SbcMjiEwiqsBMJwVmqkFAIGJWHZ3g2dyqnkHkaYHEa/iS57xZEbhQkDSXVhR8rl8lGYDIB/0uKyzCKhZ0pb1O17n7yysTO0TBIS4CV6Ack/wiCXuSe/z7gkzZhJSBArRxp7AHJcRuerPBkCuyHE55xEY33QXiPJYqfPIMsV2BIphYP6GlGvezRRLfB/kr3STBdNmBD5B4CCyZc7zAdgA4HakBwJ1iasQve1begjDUhiMwFFkNbm3FC/WeA6+ym4xGD9WTTsExHSqTZyXi1j+r4/NRWouYxYC7THR50Epd7/MzEKNtckdgbXUUjCOzh+3KXcSPZSMNR6P2P4v4okjS7R64MC3GIHeENhIBcmJdPbEVb1l6Ok+ewB6QoXveYdAfdNkvDTVGmnu/L1DPeyc9qXitusdBaF+RRmWrD4Fmtz5OwosE8sQgT2prUDtLZFVYg9AVnBxZkcRmLN0GBUXvI4X5xhH6TIxRqB/BLbji6kk2y+mHsmm23HhP/BsbI/P+SYj4BUCUpxN1aXKm5pRYg9ARjBxJscRUDP+iwvmcOfvOLJMMDMEBlKq4ObMsvaRS7XjosLfIgd3/n3AxI88QkDIe0jtmpphYgMgQ6A4m8MITEjchs7/NIepMjlGIHMEJELz5rsscGLTLA70kznknNN1BA6iwUU3ZsqFDYBMkeJ8ziEQa5wBYt4FZXFOcqZkFgIq7sR3clYpljgLM/5vyrk8F2QE3EBA0rX01LIDMyHNBkAmKHEe5xBQDVOKX4Egzz9xDlWmlDsC51KscXTWxaMNY9H5K9c/v0OzBo8LuIzAAEoW/CATHtx4M0GJ8ziDwIIFBWiYvwex4c4QZCqMQN4IIJqauDYrKmqDH8t6HGX2yKocZ2YEvEPgq5RemdI3w4K+H/NTRsBBBNbtfxuC/RzrIMUwkPo3nCVvYm+Ef7Uf9B46rI8pYn2E383AcyglbfwdWwNxPgL7he+H/IciBn0J8quwt+NwsLel75ZyCUWbb6WacR/2ne2Tp8OH3AFsj8ooL2fqCYEduJlAs3wXbXYd2ioOuZYs8RGi2g3bVUAMhH/lIDxX7mx1HIRj4K7nfNYHAhGSqR/i+Zf7yBOwF8Pc+MGUollQ6ARIvmdfivGzPBGQZAPjOqosuzxPSu3F6xtPJltge9+AtTlHlM+KSANyv4gX43xqjfwfnVuyLqvS3TO3L7U8BsbCcUD+dDye3D0LXwMBQbejrfc/nl8XPxO51TIrNqoyazgptOU30P7+gt83SUSW0oebG+myI9oyK94pl1pxMSleDoPgKJLWMTDCjsbT8Z1y8GlXBIB95DCqPAwfDz2n4DTieYlR1CbVWtsDelaF7zqPgPwNVZVfnDfd6Nt7ktW2DH+wGU1MyZtf8AgsxstRDY08SZXl77gqvhrvltbZqIsLwGeKq7yCRXwb2UWjqGbMxl7Fbn8HLcXznDdf6ZW2WQ+aoM6zOBYg4uIrjkdc7IxVbMWhRMkq3KqEkXEkfoPTp3XWw73z+6iqrNd9KYIBlhpzGzFkPl5an3cPJ6bcBQEBt5woHE8VY9d2uZ/LRV38ERS7MJeiBpfZjPaMOAjWA1RVqjoV75OKwmjbXwPjC3FkvHbYe0G94mgfTlXjF/fKrTb+DLqXab0+D/cD1YZjGIKqp4ry5b5AEU0cAv5fB2/VptlD3F4J22iHNbo3T2IwDIC6+M+hy1Xt+vD/niAg5JfwNfpk3rzaXaZ/yJuOKQQkfYB96e+iQnqQppfCCNAgqe1EbYGhHqn+xvbVQCLvRZD0PMnSM6hGpHpkHotfCNezMmQ57UQAc1HUSghJD1NNGTx8mqR5iaHURhehPavNxQ7RRCr/xJB0E1WX3d6TAPobALWNX8IL83c9Cc/3XEPgGbiN1Fhnfqk9RKoa094/P0JGlMYEM3Er2YPxsjxwu5YaqRdnkq7HS/1ayBcGjwAMMAFXNTwxy0v/SLOE3WO9RJsOwJclvmrlXj0+D91NTEqV9t0kh9Zq25ZVnTzbXEzb267G0ICa2xHmFRsr0b7H9tS+9TYAookS/OG9jsobquqTkycIbCTbGk81Je/lza2u8QG8YJ2ZRJi3ML4R2IaO425qKbzD1bFQJ9VLj3XbP0bd4SvKqDHVFujzN6g0H7PN/0z7rHmdpk5N9gtdXSOMBI5aCZz+irkqt1NF2bP4KJP94qZLhvq39iW7De2ZLsERzqXvljwFQzN/6l4l+hoA0YYhWBaCSX8Cu2xx8gwBAddZZdmjefOLNR2Jr4S/g044/+AUgJL+SAV0Jc0o+7e6DFxqH75Rbu8RgZO9XWDMgiYsoRQvEdkvUWroa1l/scYaz8EXpJqgGea0GO/ib1NF6Z8DDUJtw4kkrMegQ/gmkguqxXu9pnv96WkASIkFaIko/njV7E5OniGAL6PKkpPztu5VwJ/1+8NzIz/tmeh6MVqDzv8bGHer10usHKRRkRtTkSfQCR6XQ2mvi6ivUuWqR0elvvKLFvY5q78/6R5v3oOKk3G8h0b1l9XQ56uB4/dpecmjPbmPA6mzmu+SwpwFQTMCKX/uQrdSpGUkzZjycWcSegYCqmv8Aiw17vw715T758vJTp2fd+ev5NywH5adhLXzl1F8LX0dbtL17leZBxzOnrgKG+acCJ2eALdKDzhmy0KtcZ6PeQt/pqLUApo+8YNsCfSavzh1c0g7fzUX4hdYIXIT1Yzf0is+QXzQ/ndZQXWN18C4uRMqhMVDWUzJ4rOg7+zO1aanByDaUAQD4FiKiAGw1lwc/7cjeLG5NzlECgtucPeWowgh0GHnPzFJ0graXPwEXXSIGiPNLykLW1IzjmH5EQpaaTUj2r6CqsvNdBdHJf5WEr9GrVzgc82sAf/2L/wIOn23hlei8YnoGt4Ar0Kf9fWa/Uq8Uy6mytIFXjP2nJ/alEyKOeAbluiCT2NytzICdiY9DYCd4vFJ4BCoTdyNiULfCpzc+Qm8BF9LVfhaeis/MpqXVkNzscSDkPJSDyXdCG/Sy+iU5lPKng+MGz3hHYu/DCP2BE946cJEYJOura3fopmTt+oikutyRJuOI8ueBz7DXeflP4NWDIvt13lYjA0A/yvFHAnmNo+hVFK9oIvMUapfTR4le8jXs55c1i9ZTTMoT0Ak8Tt0jtUuSdgC2n8F7fkk0OHb5Yt6XZvvkgBUGz8Drv+n3SKvId0WGO1XIu6H8vCEL9UljmifN+Kmt1kXWMU5CDwW7ZCGDYAOJPg3fwRq47V4cYZl7gYmnIkb8Mf0s/yBCxgFNURnWX+E1Cc5ILkKvPNPHOjwsf9BLjP1HRBiJ4n2oY4luB6/857RJ2IV1KtAO15ktJr9KVef+AKWhmK5JxX3lzXYz8WvUddqOWQ6sQHQgQT/5odArPFwjKepl0gY2hTmSogLOlvS+YEXwNJqmW4EbnkpPpuD9AmUae/wW5Iv03mTPsqBhjtFahsvwXDDw+4Q142qjFNB6oukJnpyQiDjxFmYTBoDFHpOjnemjt7BPICDO0iF4WXdoSv/uolAXeNT6BSnu8lCE9pbsE8iQsaWvaKJPP6JEW0YDk+AwmFCP0K8B7NQBd+BwRDBOL4DQab6YZjT40dWDqChLWoeRxjWif8d81amYU7FhpywMrVQXeImDAfcaqp6ab1sUUo1pWrDJqMtHaPrUCvl6hqmoPPvMrtUK/mcE2YLZvqfjpfmq86RDDAl1XnEGk+BF0Dt9YBx1J1pPcbxF6Zd+oQOv6pEffHrn4ZuvxjtOAyd/wLatuPMUE32y7T1LS/5bxqfUNvNn5xpkcDls+gLkDltALAHIHC1p6HA4fj63wLX8KlYHvWahjXgr0gq8NO6UQggJbGpkFxCjaUNgQsck95xdHAzgBztL5gucxfYUr3AOkmbjahcVjcn8u2hg99EWVP3MHkMwwAXKmzYAFAocModgfb10mrSlMltqQ3xIs5CKNTncweKS2qNQDjG/hHsyz6B3f4ZtMT6xKkwZp/LIGcQsyRgAKRD7IclClIQKykYMlvpNf8md/4SLu7LuPMPRnPMSUrlwRD03ZzKBqWQpPepUHyRO/8MK6zd2K/PMHfQspWQ2qkViQ2AoFWdTvJGm/fBh/+5Oonkgiw/purSR1ygyyR1QWDd/jPQjsfoIo4LcrRiTkYV3P7vu0DbXJIivS32NgMVFDSwID1nhw0AA2vXM5Uiya+D1wDP+HnP6CWyS2/xni1z9BQBQd/0lJ/3zL6JVSvYBplTVghUlr+D/D/NqkxQMsv2OBdsAASlwnSTUwWDkXS5bmI5KM+/MV56judR6BxUgEllgEB902Qs+/p8BjmDmuVRjPc+HFThfZe7eOudGB5a57scTgsgRbkiyQaA08CGhZ5lnQlVRxqqro3lfjN5vNTQ2u2sli1N/vp/F1vAXtNZXT7PEoEzj1BDAL/IslQAsiMWAFLPEY9mLxlMg4pux/Mv4dhXZeQUeAQS1FJwFJ0/bpMjmki6yNh5/xLbhFbzWn9H2onOROYu3otS8ss6i5iHbDaWrc7svv97HvTCW7TVuo+K7OsBwGBzQJC9eABmSYsGFdZC0atwcOdvTo2XohEPdUSdeYlR6PxPdYSWfkQaaUvxj/QTiyVyHIHUALWh0SDH6epB8P5QbOnrBdbnlqzDcOdvvGDlIY8R9HjzHrsPAUxI4OUnTvNQEGblDQLYVc2hEKxJeQFEjngjtsdc1LLGiw5p8Zgrs/MDASFn+sHWA57rMX+FjVgngZZk3jyKAfaorgZArHEaMPu+k7gxLU0QEFJ5dZxJks53hpB2VGJUUf4n7aRigZxHYG78YMR3+JzzhDWgKOhGnr/icD3UlC0DxQaHqfpLzpKdDIBY42j8QTwGiboaBf6KyNydQsAqjDlCqn6FiiCVHj9yhJ4+RFrIFmqcj1MYEEjShVDTwABW4k1Klf46DFXouY5SPuk5TzcZpmj/9s5e7YJFQnUQI9zkx7R9Q+B1mjHubUe4p5JVjtDRjYhy8dWUrtRNLJbHJQQEneMSZZ/J2jfx0lWXqqCg8AmXKPtDVtCo9lUAQ7ffh6//z/gjBXN1HwHhnPtfWBVYN+2+yN5yaCWr4A5vWebATRnqe+yYSJTaM4fSXKQDAZne8S+9DKrjliG/i6iq/FlDdNFPDfURVdcYx8ey8oIakOT+BRSLX4r3+VcN0IZV6BmBJAk72vOjLO/GVhxKMvXpLEsFIfuvqHLcu9oKqnYnk8nbSLach7/VgUZ6rrUFP0CCCfHjAEkbUFHFqxDcDANA0L4FZNMtJo6EBbR1ZSL2DtTX1kwyorP4kKS8DV8FKqRl/kkmTzOw85GY9XJP/uC4RGFu8xhKtb0C6ge4xIHJmoHAUqooedoMVTTWQsrXEF/hUo0lzFw0m4YWkCWnUEqMyqJUiiKFzgSTyZzprpyptiS1pTbvuuHxWWGkDTNst3jMVRd2J+siiINyzKeKshUO0nOOVPTtPSm14yUQ5M7fOVTNpCToPnRMxo3NaVdZ0nqVTIFZKAOgsnw1QFYHJ0agdwQeWlSIr/+pvWcI6BNJD2gruWibBdkO1lY+FkwXBDZRyjZrgpouyHaXQ00Urour/nL/7o8CeD2El/wFsNZ8EXn4wKPBdw9feLvFVNBHiPn/jFvk86IbbTgIXxpX5EWDC4cFgd+G2CvpfR0L0tNjmD0SQ9kAyB60cJawrC8Yp7gU9Xhx7tBSL8tSAbmKtZSNhdILAct6WC+BjJfGmTlV/sPEBoD/dRAQCSQdExBJMxfTsp/MPLOHOVWUOqILPOTIrIKLQAKT/5YEV/wASi7p3wGUuieRB7IHoCdY+F5XBKQUuHFk15uBv9pEwz5YoKUWKZoFuYq0lI2F0gsB4WCMD70001caKVfpK1x2krEBkB1e4cwdW1ECxYcbpvwrNHVqUjud6hrHQabztJOLBdITAadifOipnaZSiQ2aCpatWNj6lxMj0C8C9lH9ZglcBjFfT5HFLMjVHqFTTwFZKn0QaMLmVcv1ESckkljiIyM0FcQGgBEV6bYSUpgY/U8/93+0YSyq0tAY9W430lDSfyGUWvuttEx97LcIjvCXbAA4gqPxRIQ0bfe/bWSX6Le1ZyRyA9pSxPj2xAo6g4DQ1YvljHraUrEjZhgA2NSFhwC0bWVaCWaaAbBYux3TYs2fQtjmmVrVOgujMwJJShW+orOAxspmCVOW57axAWBsK3VIscebVfAfs0LRSvqnQ+g4R8ZOXQdiPPPfOURNp7SIasZsNF1JLfUTqX21lCt7oTayAZA9aOEqMWCH2vlKLQM0JwkR10qZaPM+iPr3Na1kYmF0R+BvugtorHy2tZ8hun3Ms407anJeYhQlrQEdl4H9TbVtQ3S7NY7JL8TB2FXQrCTl21opZLVdDRtrsFYysTC6I8DBf/yqIWHDA2DAN5GkTWwA1DVMIbIepzY10S3lV5Nyjq8Fp05d48+wBfB3HCEqhVnufwWKkCsdwcYJIukhltQ3MB/HCWpMIzQIiMWhUVU3RaU4xIT+H9ugfxzuIYD6+Ah0/s+jfRk2yU1UO/g38ykHaelASpIt39FBkLQMA5Nw/cu9tJGHBQkCAkmyU4kgCGqojCpYlwkp5HMAUvQj1KIpEzo6N8gtnS/yOpd0YF7ltSssNmqzAdCCBQX48L9KO4hYIN0R+ECbNqw7Um7IJ+gwN8h6T1OsDa8HIJoogRvncu9B94Tjh45xETTKMVpaEJL6hPHcsF8lIDlIC1hYiCAhsDpIwhol60OLCqHPoUbohD0NwmsACHkHKlFVpoFJOmcAmLYHgJDrtKlwKa7RRhYWJDgISHo/OMIaJumwwZOgkRnLdSW9E04DoDb+X/j6P8uwptlJHbG200W+p0PzJaBVeVs4NzySj2LRpuNQ/Kh8SHDZkCIgyIxY9EGsPkt8Nohi9yizsP4TPgNgFqIfWnRnj4CYc9NJD8Awc2CBJoL02AFQ2NcahSsr4x0CQrR5x4w5dUFAyKO7XAf5YltLCIcAJsbPw8SrzwS53vqVXZAzcQDUJDWiQf3yC1QG4b8BEE2oZUQGe6AC1SACKKw0YL1yAGFXIks6JqCSdxf7Q5o5eWv4PAC2dXh3JAy7Xk+R5HOO6PTxXkMcoaMVEWn7Lo6QauyfN/3xvSICKoAt2ADwo+piKw4FWzOWAApqVBCGLxBQdek1NHfxzbQtIqgwUkyRwty+cKU9BOvJc5tEGJG5udXtCPjJPjplfBkUJV+j6RM/cOTvQw4wr5OS5O9GHnOWDsPX/0WO1A8TCScCVl/vgHBC4onWdvJUEgZEAFRgSVqifsJnACitZ0wxZTtHpY17qcUSVOT/B7OjCgraw1F62RIrKrgURfow4rIlyPlDh4BNCGDGyXsExBe95+kax+WKcviGAFzD00DCAyImtg//VjWoNcTCQthfToxAHghYNDyP0lw0FwRUyG5BJ+VSVM8y9lIll4kveD3xDqJUyVYT20duwy9O1N/wITXwvRkWWdEJYJhGVghIGplVfs6cPwIDkxUgkttwcf7cnaZgk00NiqiJL3inwQovvYJiw/z/6aocSU8v8ucPWchrw9uYWHMHERhNj6wM/s6lDgLiOikpznedh3cMViCUdDoeChsA3oEePE5btm4NntD9SiyobdCh/eZyOoMKPkV0uNNkmV4oEbBoaKsh8egDUH+xxtHw3E0NgKSZivhqR0Y2ADqQ4N/dEfjKpG24aZ4XwKaxuyvr8h1BF7jMgcmHCQFhl4VJXV91leJK8DeorxQLO/A0SKkOlfjXMQSEUJvUKyPArCRpoucKCTrDc57M0FwEpOAw0l7UbrQBK3bEJV6w8oyHnWIDwDOwg85IkoHDAOJYT6sl2rwP1t3u7SlPZmY6AieYrqAW+lnWhXD/76WFLM4I8W+M//+ngxR7ADqQ4N+eERC0secHAb4rEM5T7QnBiREILgKTKfr2nsEVPwCSR1cNhJTfDYCk2Yj4SufM/BLsjAaf94SAM/sK9ETZv3t70qQV3g0DVI9dB1VX+qcuczYQgQiJHScaqJc+KkW2fB3CHKCPQA5IIsUfO1NhA6AzGnzeAwLSRAMAUxvt6T0o684tNZdCyhtBXM2p4MQIOIOAEIgrwckVBFTgH/O+/lupiJ7vjBcbAJ3R4PMeEBBmGgBEKrCHd6m6/Pck5JlguNg7pszJbATkGb7FtDAbWKLi1M3GzduRtICml27uXHXh3AugMwJ83h8Cq/vLENDnGENtGIsJMW95Jn9luXK//ZHq39qXkqmDKZLyd1+CfBQXCIxqi1+ABK9HzwfH/MoOppZBalvp3+dHhkt3QaCuYQqcdWrpn1lJiHndFWIDoDsifN0VASHfI2nIDlhdNcPqHnEBbv2g+23XryvGrgUPdQQ31SWuwEuSO3+/a1Ck16izAeBUPaQnByceADnT+kYJg/3p7jDxEEB3RPi6KwK2eLvrDYOuhLiMQ6rmUJ/1KxCERt6ZQ0ku4jwCn6No02edJxtSihOavgfNzYuxIGgh1ZS8171W2QDojghfd0UgUuidi7wrZy+u9qEhrZVeMDKGh9rR0E49Bn382U/BGCAdVMSyr3aQWnhJxRqPhmE7y1AAHu1JLzYAekKF7+1CoN1dbV4sgA4NhbyOYwJ0gJHB74hBtyHXkRnk5CzeIXAO1TdO8I6dgZxUTAUp5kAz01z/qrK2UMqu66nW2ADoCRW+1x2B5u43DLqeQuPjvJwqkwqtjZ+CiRPXZZKV83iKQATju7d7ytEkZmrc39rxOFQ61CS1dukiox27/+26137GBkB3RPi6BwTEkh5umnNLiFtIubY59Y5AtGEk5v0r1z+/M3pHyc8nZ1Ks8Xg/BQgs7wkJNZ/ljMDK35/gUj7aWxb+Y+4NGb7fCQH5ZqcLE0/H0YghKuoXp54QWLCggKxIFI9G9vSY72mCgBQP0LPNxZpIEwwxYvFLIeg1wRA2JykbqKr8L72VZAOgN2T4/i4EhAhB8Bp5O8VWHLpLaT7bicCG/W/F5KjP77zmE10RKKftyR/qKpx2ctXFv4xgP/drJ5eTAgl5N5Y79xqBlA0AJ8E2lVYBLYVqKVPV+0SvQSRTZr8McqnAWOMMhDH+Ti5FuYwPCEj6DkXjn/GBc7BY1jWeDYFn44gES/CspF1DAwvV3IZeExsAvULDD3YikA4fKZbtvDb35ItUF7/SXPWy1CyWmIqZ0U+glKGRoLLEIxjZMVxDtYhyOTwY4vogZW0cYcCFCp5U4AN371gKcR+dPq61L4ZsAPSFDj/bhYCUr+66MPrsLnxBHWO0hpkop4LLSKlChw7IJDvn0QqBQ0hYc3h5aw91Emu8GOasms9i+lyJbdh7REU07DOxAdAnPPxwJwKWWLjz3OyTovQX1Lxl+5mtZh/aKQPIsl9EjqF95OJHOiMg6FSaEP+JziJ6Lltd/LvwaD0Mvia7/dthleKXVFG2vj+M2QDoDyF+3o5AKqVmkvY6mcQwmA6gtoLnSAUHCVtSS8ksegFqG6q73BCeKhXXU23jDeHRtxdNH1k5AEN7j+Dpf+MIw3DWFipqy8j4YwOglzbDt7shUDN+De6Yvhyws9JTEBzkeZq9ZHDnm0afpyf8ieego7lf/jId6nWz0fXYWTkh/ptq45d1vhWq86eWHUh7tKiPlwtDpPf/0PSJH2SiLxsAmaDEedoRkFJtZxumdDQNLJqLCVVDjFc6Fr8O7tE66GlwjH/5NnxYD+FQHo6wJLVx8/34Ar42LArv1DOWOIuSBW+gvsO0KmI9tRTctRODfk7YAOgHIH7cCQELe9mHLQk6mSzrNZqXGGWk6mn3aOOv8ZK8E/oZ/j4QP0BI1B3Qcq6Rddm7Uqpe74IR8PNQTAyMrhqY1lXKp6D3Pr3DYuATST+h88dtylQzw//gM4WB82WEQKrsdeRbm1FeszJNojZ7IaW3wTVIsWiihIa2/APDol81SKveVFlCy0ufTD9MFSlDdkdvGQ2+fxVNSGCJoMFzW6JNx5G15Z+ow6twhGG8v3NzXUlyyH2db/R3zgZAfwjx810I1IjUJ27iXfdCcybGYBvcN6gucXXgVZZSkAqBask3oMvEwOuTiQLS+h7NEnY6a82YjfB4/CmTYgbmqSCr9Q3jggXNWToMX/2/xOqVhaizUgPrLROVrqaaA7dnkrEjDxsAHUjwb4YIpH6fYUYTsw3EQoj/Ref5GM1dvFcgFYw2lFN9YgE6wIcgfzgmOEr6M1WXqMmNu5IQs3ddhO0MxqxFr8GYvZ7UPg9BTmonv1j8QioqjEONr+EI21d/R+09Q1VlT3dcZPobVrAyxYfzdUcg/fXY9A46wgO7PwrVtSTMssXWuFUlT/QVa1sbTB5v3oMGJH8AeZQHI0w7H8LVb01GPSW61IWa+zC0dTXacTANuS7K5HWxDO33CqosfS0vKn4Urm04EQGPfgbWU/xgrxHP7SQiE6jysH9lKxN7ALJFLOz50xtLyDlhhwHfGfsh0tbjFEvMp7qGo7TFQy1jVGvBByTVy+HbOMLU+aN/l3fs1vmryrrokBYiO8zeLIWCShOB0avwBszGapex7bc0/7+24fNY2vgcOv+XIGnYO3/l8/hpLp2/qmX2AGje1rUUb27zGEolV0A2NiB3VdAL+JL6sTZfUiqSYbLgcrj6vw4R990lZpjOsOzPHjqx13HRusQkWAhLwoRIP7om8RzGvbwNW8g295PX28dqqGLDfpWYg3QdGB/pLXOtuS2nQQVH9BfzvzcN2ADoDRm+3zcCaQsc4UY5dUdgEb6oHqGC1idoxpSPuz909Vq9JD/a/ySy7fNg21eDl+nxzvuD81SMi/a95r8usRAdHm913BVJG4bjy5gk+ihtbaunmZO3dn3s4VW0YSSW4Z4LjmpW/2gPOQeBFYa37KOpavziXIVlAyBX5MJerjYxHS5wtc6WU88IwMWMuAlSPk9W4fNUOe7dnrPleVeN7RcnT4Iv71S8tM9KD03kSdKM4uJJqir9Ur+61CVqYAC0Lw/sN3MoM2xGm0KAKBgDqbLXSK0EcjupTl+IChzKiFXGmfmx+3PBVCCuRWXprbkU7SjDBkAHEvybHQJRGSErsQKFDs2uYGhzL8eL9HW4MJeQLd+kpNVA55asywoNtcWrReNIRspR7gh8oR2FTn8yzoM9kzsrEDLKvJYKk5MyCoeabsfxJnhMxmREOdyZ1qMN/wlt+E/4Kv8bzRiXQCed//4g9fER+JvAPBpxFOifgDZ9HGDmTr/vtvZ/NGLNcTR1qhq2yTmxAZAzdFwQE4cux5fBA4xEzgi0ouRqvPRW46Wn3Kwbcd6+Vl2RlLIIL8W9cTYCvyNxI+wz1hUq/SWZ9oRUlz3TX8adz1VMhPZlkTtv8UlGCGxAriUwCOIwRhNor6vIjrxPEbGOUmIztW3f1TkNKRpISXEASRvtWP1KuPZpLHD/LGiMy4gbZ+pAYBvZ4nCqKYXhml9iAyA//MJd+tnmYtqWXAkQ9g83EKy9Rgjch3H/K7OSR7XjrVglIWhUVuU4MyPgBwJCzqTK8t86wZpncTuBYlhpnD6uFfMA/jes6rPe2iHQSPaQ67OWSrVjNfOdEyOgPQLyQac6f6UqGwDaV7jmAqaG3gsJ3ZngprnqLJ5WCLSmVz9kGQp1pwYbtj2M87d2XvMJI6AfApg/NNTRXR3ZANCvkoMlUfqFK/jrKVi1ZqK0N2KnvzdzVuyyI9owLq0iJXJiBPRDQNBHGPef0WtMixwlZgMgR+C4WCcE7BJ8PUkVi5sTI+A9AhLb+1aW3p0346qyJzEP4G9502ECjICzCGATNnk+Jv2p+VaOJjYAHIUzpMTa1wbfGFLtWW1/EViOmeUzHVmOppa0SfsbUMf9te7+Ysbcg4SAoGsQmfFZN0RmA8ANVMNIs6pcBQXKfOlVGDFinZ1FIO0WteEWHb/FMcIqqpqgXzlGjwkxAvkgIOleqixT86xcSWwAuAJrSImKiNppbntItWe1vUUA4WqVW3S88xP3UkU3QBWe2OptfTK33RCQz9Heaxyd9NedBRsA3RHh69wRUNtRCnF77gS4JCOQIQKCvuOWW5RqxmxEcJvsYglkKDZnYwQyQ0C8SYXWOflG+uuPFxsA/SHEz7NDYPjqn6DA69kV4tyMQFYIPAy36F1Zlcg2c3XpPAwF8HbB2eLG+Z1A4C0S9uk0vXSzE8T6osEGQF/o8LPsEVCxqa3IBSjIQwHZo8cl+kUAbtERa9QWx+4nq+UKMHnHfUbMgRHYicB7WO53CoL9rN55x8UTNgBcBDe0pCsOiyPG9w9Dqz8r7hYCi7FpTI3bbtGdwqvtnKX9FVzzqoCdoPCJawgIWodgVqe4sdyvN5nZAOgNGb6fHwINpf8DI+D5/IhwaUZgJwJwi8ppjs7430m6j5Pq8a/iKQe66gMifuQEAkIZm+j8xzc6QS1TGmwAZIoU58sOgVkCs7Tt81Do39kV5NyMwG4IvOulW3Q37stLb2ZjdjdU+IZzCGzCipZppJagepx4N0CPAQ8du2jTZ8my1VcUtrblxAhkjcCHmFNyAqlhJT/TnKXDqLgAk1vFGD/FYN6mIYAvf2GfhjH/v/uhGXsA/EA9TDxrSv6Br6erwqQy6+oYAthvXpzke+ev1Dlv0kfYO60CZ67PzHYMPSakOwLr0fmf6Ffnr8BhA0D3JmKCfNVlD0GN/zFBFdbBIwTSUf6s06iqdKlHHPtno2SRWJtNlOw/M+dgBPpEYDXZNBWd/z/7zOXyQzYAXAaYyX+CwPJS7NMu5zEejEAGCKxFIJ7/IuU90i1VlzyH8Vq1PJATI5ArAv/CbP/jqaZsWa4EnCrHBoBTSDKdvhFQkwK3talJgb6MdfUtHD/VCAG1Dvp4rb78u4NTXa72Cril+22+ZgQyQGARWYXHuBLCOgPm3bPwJMDuiPC1uwhEG4aTZS0Ak0nuMmLqAURgJUUKTqYZ494OhOy1ibuxNPFbgZCVhdQBgafx5X+u50tZ+9CcPQB9gMOPXECgZvwGWMAng3LCBepMMrgIvE6FyWMC0/krnKtK1EYtDwcXcpbcQwTupOWlZ+vU+Svd2QPgYQtgVp0QiDYcBE/AfNwZ2+kun4YTgadp244v08zJWwOnvpSC6hI/w5v0usDJzgJ7gUASc0aupury+71gli0PNgCyRYzzO4dAtGEkjIAXQXCic0SZUqAQEOJXNHz1FZ6F93ULnFj8R1juOsst8kw3kAi8h91Rz6HK0td0lZ4NAF1rJixy1b+1L9ltygiYHBaVWc80Am3pr+bKsnuNwaOu8Rtwqt4DfXho1ZhKzVmRhRjvPwcu/zU5U/CgIDdUD0BmFn0gUDF2LbW2TUWOl/vIxY/MQmANwkQjAIpBnb+qn6ry+/D/V3Hw5kEKj3Amia/+n2LHyhN17/xV9bAHIJyNVD+tow1FZIlfo0mer59wLJFjCAh6g1J2BV6O/3GMpm6E6hrPRjueA7EG6SYay+MiApLeJ0tegOA+L7nIxVHSbAA4CicTywsBNaEqFv8xXp435UWHC+uIgIRQ98Itej06/x06CuioTPVNk6HrU6B5sKN0mZimCIin0PlfQhVl6zUVsEex2ADoERa+6SsCtYnpWF89GzLs4asczNwpBBDZjy6m6rJnnCIYCDrp+S3JOkTA/Hwg5GUhc0BAbeYjr8Fw1qM5FPa9CM8B8L0KWIDdEKguRchg6yi8OP3dAW43wfhG1ghI+hNekJ8OXeevgFLzW+zUSWjHP8eV8oBwMguBp6mQxge181dVwR4AsxqkWdrMXbwXpQY+gncnxlQ5BQyBzVj//F2qKnsAk6K482v3av0GdTg8YPXI4nZHQNIHWOdxLTr+J7o/Cto1GwBBq7EwylvbOBOdiJphPSSM6gdPZ/EsvnyvMHqiXy6V0h78SnUan8ulOJfxHYEU/Dj3U0HLD2nGlI99l8YBAdgAcABEJuEBAtHEIRSRc/AHeIwH3JhFbghgrF9ej6hnav4Gp54QiMoIicQ18L1isisN6CkL39MSgdcwqfNKGLVvaildjkKxAZAjcFzMBwQeWlRIIwZ/D5xvxFHsgwTMsmcE2mCYPYi1/bPwgtzQcxa+2wWBuc1jKJVUQwLHd7nPF7oh8B8YtT/AUNZvTRzKYgNAt+bG8vSPQLRhLEII/xIZp/afmXO4jMBLWP50DVWUL3eZj3nklTfASlyBqVjwBsi9zFMw0BphOZ+8jWx5n8nLVtkACHQbDbHws6RFE5ouwx/prUCBJ1Z53xSW4qsf7v6yF71nbRjH+vgIsul2aPU1HPxO9rd6N6Bd30uy6G6qGbPRX1Hc586NzX2MmYObCMxZOowGFN0AN901YFPkJiumnUagAVjfQbJsDtUIDnnrZKOojR+L7v9nIHmsk2SZVgYICFoH2+vntD1yD50/blMGJYzIwgaAEdXISlD9ijJKpdS2rNMYDVcQWAaqN2NP87k0S9iucGCi7QjEGk8iKe7CxSSGxHUEVqY7/uItD9OZR2xznZtmDNgA0KxCWJw8EVBfUYRtWQWdnCclLo7xFfx7CYF8/peWlz3PHb+HTWLBggLasN+XgT8mvYoyDzmHhdVCGFm/IFlSH2ZPFhsAYWnuYdMzlvgcJvD8iA2BnCp+O0r9lsi+h6rGN+REgQs5g4Ca6zKxqQLDLjeC4BRniIaWymbYtI+TLR6gmjLl0Qp9YgMg9E3AcADUpizSvhpfUudCU1462Hd1/xMG06PYrQ/j+7ycr2+ofHgajZ+ACHTfBOfpOAp8kCCILFUUylfhRXkMYXtraXopjABOHQiwAdCBBP+ajYDamCW14zKs5b0Yio42W9mstFuL3Ni6VjxKVaVLsyrJmf1B4KllB1IyghUw1kx80R7ojxDac03A6H+SrMhsqjzsX9pL65OAbAD4BDyz9QkB5VItX3EsWfZXIIHyCoQwvLBYhY7jOej+DK3f+jxddkSbT7XBbPNBID08EP8CjLcL0dnNAKlB+ZAzoGwjdKjDkso6dvFnVptsAGSGE+cyEYHHm/egAclpeHlWwPV9GlQcbKKa0MmGfovx/4sIoDSXKg5bZGJUM0PrLjO1oqsGkrXlJBgD1TDuzkKhPTMrGOhcSUj/f5gf8XT6qBmvDABOWSDABkAWYHFWgxFQL9DI1pMxXwCGgDgRmo4LuLYr0BHMhy7zEcN8AY/pB7w2sxH/2eZiamk7nlLiizD8TkHRidkU1zhvK1akvI5JfK/i9y+Y5LsQ7XqLxvJqLxobANpXEQvoCwKxxtEkLRgCUsVqPxJHKQ7LF1n6Z/ohOvrX8VL8B76E8IIsfJ1qxuEeJ0YACMxLjKKk/C94uo7F1XE4JuCI4NA9qQl7f4W36i9wYi2kTQP/QRcd0qK70EGSjw2AINUWy+ofAvMSQ6lVHg4T4DMQohSdbRnWEav12SM8FGotvuji4IcJTiKOzj5Ohck4nT0RY/qcGIEMEVBDX8VJtGX5aRiOU2AY4Ddt4PoVSXMr+MNjJZTXqgnnCXT4CbLLl4Z5jX6GtZlXNjYA8oKPC4cegSea9qaiJGZiW5/CC+xTGEIYhS+WfdFRD8OY+154ye6Jzlpt9NJ52ZY6V+OXSGITjAm1z/hWHOtRFrvp2RtQHqFJaTXovovn71FyyCqqOVCtz+fECDiPgNqYKNI8moR9GNrtYWiDh6LdHgCD9wC0y4PAcCSObL0GrSjzAdryezBW1WqT1Wjfa9DJv0t25H2KpFbBM/E+D08BGZ8SGwA+Ac9sGQFGgBEIFAJzF+9FbUV7w5Ydjs57D7KtYTBwC6HDEHTwhRgy+xgGw/sIyf0B7q3hjl3/2v1//292ahKVjlMAAAAASUVORK5CYII=;" parent="1" vertex="1">
                    <mxGeometry x="159" y="360" width="72.01" height="27" as="geometry"/>
                </mxCell>
                <mxCell id="BudTzyy_jxnUeHE1odWL-12" value="list of funcs" style="text;html=1;align=center;verticalAlign=middle;resizable=0;points=[];autosize=1;strokeColor=none;fillColor=none;fontSize=16;" parent="1" vertex="1">
                    <mxGeometry x="380" y="440" width="100" height="30" as="geometry"/>
                </mxCell>
                <mxCell id="BudTzyy_jxnUeHE1odWL-13" value="- func1&lt;br&gt;- func2&lt;br&gt;- func3" style="whiteSpace=wrap;html=1;aspect=fixed;" parent="1" vertex="1">
                    <mxGeometry x="380" y="330" width="100" height="100" as="geometry"/>
                </mxCell>
                <mxCell id="BudTzyy_jxnUeHE1odWL-25" style="edgeStyle=orthogonalEdgeStyle;rounded=0;orthogonalLoop=1;jettySize=auto;html=1;" parent="1" source="BudTzyy_jxnUeHE1odWL-14" edge="1">
                    <mxGeometry relative="1" as="geometry">
                        <mxPoint x="1020" y="380" as="targetPoint"/>
                    </mxGeometry>
                </mxCell>
                <mxCell id="BudTzyy_jxnUeHE1odWL-27" value="generate&amp;nbsp;" style="edgeLabel;html=1;align=center;verticalAlign=middle;resizable=0;points=[];" parent="BudTzyy_jxnUeHE1odWL-25" connectable="0" vertex="1">
                    <mxGeometry x="-0.1354" y="-2" relative="1" as="geometry">
                        <mxPoint as="offset"/>
                    </mxGeometry>
                </mxCell>
                <mxCell id="BudTzyy_jxnUeHE1odWL-14" value="- func1&lt;br&gt;- func3" style="whiteSpace=wrap;html=1;aspect=fixed;" parent="1" vertex="1">
                    <mxGeometry x="600" y="330" width="100" height="100" as="geometry"/>
                </mxCell>
                <mxCell id="BudTzyy_jxnUeHE1odWL-17" style="edgeStyle=orthogonalEdgeStyle;rounded=0;orthogonalLoop=1;jettySize=auto;html=1;exitX=1;exitY=0.5;exitDx=0;exitDy=0;exitPerimeter=0;entryX=0;entryY=0.5;entryDx=0;entryDy=0;" parent="1" edge="1">
                    <mxGeometry relative="1" as="geometry">
                        <mxPoint x="480" y="379.74" as="sourcePoint"/>
                        <mxPoint x="601" y="379.74" as="targetPoint"/>
                    </mxGeometry>
                </mxCell>
                <mxCell id="BudTzyy_jxnUeHE1odWL-18" value="match filter" style="edgeLabel;html=1;align=center;verticalAlign=middle;resizable=0;points=[];labelPosition=center;verticalLabelPosition=middle;" parent="BudTzyy_jxnUeHE1odWL-17" connectable="0" vertex="1">
                    <mxGeometry x="-0.3545" y="1" relative="1" as="geometry">
                        <mxPoint x="21" y="1" as="offset"/>
                    </mxGeometry>
                </mxCell>
                <mxCell id="BudTzyy_jxnUeHE1odWL-19" value="list of matching funcs" style="text;html=1;align=center;verticalAlign=middle;resizable=0;points=[];autosize=1;strokeColor=none;fillColor=none;fontSize=16;" parent="1" vertex="1">
                    <mxGeometry x="565" y="440" width="170" height="30" as="geometry"/>
                </mxCell>
                <mxCell id="BudTzyy_jxnUeHE1odWL-21" style="edgeStyle=orthogonalEdgeStyle;rounded=0;orthogonalLoop=1;jettySize=auto;html=1;exitX=1;exitY=0.25;exitDx=0;exitDy=0;entryX=0;entryY=0.5;entryDx=0;entryDy=0;entryPerimeter=0;" parent="1" source="BudTzyy_jxnUeHE1odWL-14" target="BudTzyy_jxnUeHE1odWL-23" edge="1">
                    <mxGeometry relative="1" as="geometry">
                        <mxPoint x="700" y="379.74" as="sourcePoint"/>
                        <mxPoint x="821" y="379.74" as="targetPoint"/>
                    </mxGeometry>
                </mxCell>
                <mxCell id="BudTzyy_jxnUeHE1odWL-22" value="look up&lt;br&gt;permissions" style="edgeLabel;html=1;align=center;verticalAlign=middle;resizable=0;points=[];labelPosition=center;verticalLabelPosition=middle;" parent="BudTzyy_jxnUeHE1odWL-21" connectable="0" vertex="1">
                    <mxGeometry x="-0.3545" y="1" relative="1" as="geometry">
                        <mxPoint x="10" y="-44" as="offset"/>
                    </mxGeometry>
                </mxCell>
                <mxCell id="BudTzyy_jxnUeHE1odWL-23" value="func1 → perm A, perm B&lt;br&gt;func2 → perm C, perm A" style="whiteSpace=wrap;html=1;shape=mxgraph.basic.document" parent="1" vertex="1">
                    <mxGeometry x="800" y="200" width="150" height="100" as="geometry"/>
                </mxCell>
                <mxCell id="BudTzyy_jxnUeHE1odWL-24" value="mapper.yml" style="text;html=1;align=center;verticalAlign=middle;resizable=0;points=[];autosize=1;strokeColor=none;fillColor=none;fontSize=16;" parent="1" vertex="1">
                    <mxGeometry x="820" y="300" width="110" height="30" as="geometry"/>
                </mxCell>
                <mxCell id="BudTzyy_jxnUeHE1odWL-26" value="&amp;nbsp; {&lt;br&gt;&amp;nbsp; &amp;nbsp; perm A, &lt;br&gt;&amp;nbsp; &amp;nbsp; perm B,&lt;br&gt;&amp;nbsp; &amp;nbsp; perm C&lt;br&gt;&amp;nbsp; }" style="whiteSpace=wrap;html=1;aspect=fixed;align=left;" parent="1" vertex="1">
                    <mxGeometry x="980" y="330" width="100" height="100" as="geometry"/>
                </mxCell>
                <mxCell id="BudTzyy_jxnUeHE1odWL-28" value="final policy statement" style="text;html=1;align=center;verticalAlign=middle;resizable=0;points=[];autosize=1;strokeColor=none;fillColor=none;fontSize=16;" parent="1" vertex="1">
                    <mxGeometry x="945" y="440" width="170" height="30" as="geometry"/>
                </mxCell>
            </root>
        </mxGraphModel>
    </diagram>
</mxfile>